<?xml version="1.0" encoding="UTF-8"?>
<svg xmlns="http://www.w3.org/2000/svg" xmlns:xlink="http://www.w3.org/1999/xlink" width="51px" height="51px" viewBox="0 0 51 51" version="1.1">
<g id="surface1">
<path style=" stroke:none;fill-rule:nonzero;fill:rgb(0%,52.156866%,100%);fill-opacity:1;" d="M 42.863281 5.914062 C 45.332031 5.914062 47.335938 7.925781 47.335938 10.402344 C 47.335938 12.882812 45.332031 14.890625 42.863281 14.890625 C 40.671875 14.890625 38.851562 13.308594 38.46875 11.21875 L 36.003906 11.21875 C 35.554688 11.21875 35.191406 11.585938 35.191406 12.035156 L 35.191406 24.910156 L 38.433594 24.910156 C 38.722656 22.710938 40.59375 21.011719 42.863281 21.011719 C 45.332031 21.011719 47.335938 23.019531 47.335938 25.5 C 47.335938 27.980469 45.332031 29.988281 42.863281 29.988281 C 40.753906 29.988281 38.984375 28.519531 38.515625 26.542969 L 35.191406 26.542969 L 35.191406 39.621094 C 35.191406 40.074219 35.554688 40.4375 36.003906 40.4375 L 38.398438 40.4375 C 38.480469 38.03125 40.449219 36.109375 42.863281 36.109375 C 45.332031 36.109375 47.335938 38.117188 47.335938 40.597656 C 47.335938 43.074219 45.332031 45.085938 42.863281 45.085938 C 40.910156 45.085938 39.25 43.824219 38.640625 42.070312 L 36.003906 42.070312 C 34.660156 42.070312 33.566406 40.972656 33.566406 39.621094 L 33.566406 26.542969 L 30.785156 26.542969 C 30.675781 28.347656 30.21875 30.058594 29.476562 31.605469 C 28.972656 31.285156 28.429688 31.023438 27.855469 30.835938 C 28.480469 29.539062 28.875 28.109375 28.988281 26.601562 L 23.941406 26.601562 C 23.894531 28.089844 23.730469 29.511719 23.46875 30.832031 C 22.3125 31.203125 21.285156 31.867188 20.472656 32.734375 C 19.707031 32.597656 18.925781 32.507812 18.132812 32.464844 L 18.132812 37.277344 C 18.277344 37.199219 18.421875 37.101562 18.566406 36.988281 C 18.550781 37.199219 18.539062 37.410156 18.539062 37.628906 C 18.539062 38.1875 18.601562 38.730469 18.722656 39.25 C 18.292969 39.296875 17.855469 39.324219 17.414062 39.332031 L 17.222656 39.332031 C 17.210938 39.332031 17.203125 39.332031 17.195312 39.332031 C 17.195312 39.332031 17.191406 39.328125 17.191406 39.328125 C 9.714844 39.304688 3.664062 33.210938 3.664062 25.703125 C 3.664062 18.191406 9.71875 12.101562 17.195312 12.078125 C 17.203125 12.078125 17.210938 12.078125 17.222656 12.078125 L 17.238281 12.078125 C 24.46875 12.078125 30.378906 17.753906 30.789062 24.910156 L 33.566406 24.910156 L 33.566406 12.035156 C 33.566406 10.683594 34.660156 9.589844 36.003906 9.589844 L 38.46875 9.589844 C 38.851562 7.5 40.671875 5.917969 42.863281 5.914062 Z M 42.863281 37.535156 C 41.183594 37.535156 39.816406 38.90625 39.816406 40.597656 C 39.816406 42.285156 41.183594 43.65625 42.863281 43.65625 C 44.546875 43.65625 45.914062 42.285156 45.914062 40.597656 C 45.914062 38.90625 44.546875 37.535156 42.863281 37.535156 Z M 17.183594 39.328125 C 17.183594 39.328125 17.179688 39.328125 17.179688 39.328125 C 17.179688 39.328125 17.179688 39.328125 17.183594 39.328125 Z M 16.34375 32.464844 C 15.328125 32.515625 14.332031 32.648438 13.363281 32.863281 C 13.796875 34.136719 14.332031 35.179688 14.902344 35.957031 C 15.382812 36.605469 15.875 37.046875 16.34375 37.296875 Z M 11.632812 33.335938 C 10.792969 33.613281 9.976562 33.949219 9.195312 34.339844 C 10.375 35.449219 11.78125 36.3125 13.332031 36.863281 C 12.660156 35.90625 12.085938 34.703125 11.632812 33.335938 Z M 5.488281 26.601562 C 5.667969 28.992188 6.558594 31.183594 7.945312 32.96875 C 8.960938 32.425781 10.03125 31.96875 11.144531 31.609375 C 10.785156 30.078125 10.558594 28.386719 10.503906 26.601562 Z M 21.117188 31.40625 C 21.277344 31.4375 21.4375 31.472656 21.597656 31.507812 L 21.84375 31.566406 L 21.597656 31.507812 C 21.4375 31.472656 21.277344 31.4375 21.117188 31.40625 Z M 21.007812 31.382812 C 20.960938 31.375 20.917969 31.367188 20.871094 31.355469 C 20.917969 31.367188 20.960938 31.375 21.007812 31.382812 Z M 20.773438 31.339844 C 20.726562 31.328125 20.675781 31.320312 20.628906 31.3125 C 20.675781 31.320312 20.726562 31.328125 20.773438 31.339844 Z M 20.515625 31.292969 C 20.472656 31.285156 20.429688 31.277344 20.386719 31.269531 C 20.429688 31.277344 20.472656 31.285156 20.515625 31.292969 Z M 20.269531 31.253906 C 20.226562 31.246094 20.183594 31.238281 20.136719 31.230469 C 20.183594 31.238281 20.226562 31.246094 20.269531 31.253906 Z M 20.039062 31.21875 C 19.984375 31.210938 19.929688 31.203125 19.875 31.195312 C 19.929688 31.203125 19.984375 31.210938 20.039062 31.21875 Z M 19.785156 31.183594 C 19.738281 31.175781 19.6875 31.167969 19.636719 31.164062 C 19.6875 31.167969 19.738281 31.175781 19.785156 31.183594 Z M 19.542969 31.152344 C 19.488281 31.144531 19.429688 31.140625 19.375 31.132812 C 19.429688 31.140625 19.488281 31.144531 19.542969 31.152344 Z M 12.296875 26.601562 C 12.355469 28.257812 12.558594 29.785156 12.871094 31.136719 C 14 30.878906 15.15625 30.722656 16.34375 30.667969 L 16.34375 26.601562 Z M 18.132812 30.667969 C 19.308594 30.722656 20.457031 30.875 21.574219 31.128906 C 21.886719 29.777344 22.089844 28.257812 22.144531 26.601562 L 18.132812 26.601562 Z M 19.289062 31.125 C 19.238281 31.117188 19.1875 31.113281 19.140625 31.109375 C 19.1875 31.113281 19.238281 31.117188 19.289062 31.125 Z M 19.027344 31.097656 C 18.980469 31.09375 18.933594 31.089844 18.882812 31.085938 C 18.933594 31.089844 18.980469 31.09375 19.027344 31.097656 Z M 18.785156 31.078125 C 18.730469 31.074219 18.675781 31.070312 18.621094 31.066406 C 18.675781 31.070312 18.730469 31.074219 18.785156 31.078125 Z M 18.527344 31.058594 C 18.472656 31.054688 18.417969 31.050781 18.363281 31.046875 C 18.417969 31.050781 18.472656 31.054688 18.527344 31.058594 Z M 18.28125 31.042969 C 18.222656 31.039062 18.167969 31.039062 18.113281 31.035156 C 18.167969 31.039062 18.222656 31.039062 18.28125 31.042969 Z M 18.019531 31.03125 C 18.015625 31.03125 18.015625 31.03125 18.011719 31.03125 L 17.769531 31.023438 Z M 42.863281 22.441406 C 41.183594 22.441406 39.816406 23.808594 39.816406 25.5 C 39.816406 27.191406 41.183594 28.558594 42.863281 28.558594 C 44.546875 28.558594 45.914062 27.191406 45.914062 25.5 C 45.914062 23.808594 44.546875 22.441406 42.863281 22.441406 Z M 5.113281 26.488281 C 5.121094 26.5625 5.125 26.632812 5.132812 26.703125 C 5.125 26.628906 5.121094 26.554688 5.113281 26.480469 Z M 7.945312 18.4375 C 6.558594 20.222656 5.667969 22.417969 5.492188 24.804688 L 10.503906 24.804688 C 10.558594 23.023438 10.785156 21.328125 11.144531 19.796875 C 10.03125 19.4375 8.960938 18.980469 7.945312 18.4375 Z M 12.875 20.269531 C 12.558594 21.621094 12.355469 23.144531 12.296875 24.804688 L 16.34375 24.804688 L 16.34375 20.730469 C 15.15625 20.679688 14 20.523438 12.875 20.269531 Z M 21.570312 20.273438 C 20.457031 20.523438 19.308594 20.679688 18.132812 20.734375 L 18.132812 24.804688 L 22.144531 24.804688 C 22.089844 23.148438 21.886719 21.625 21.570312 20.273438 Z M 26.53125 18.433594 C 25.503906 18.980469 24.425781 19.441406 23.300781 19.804688 C 23.660156 21.335938 23.882812 23.023438 23.941406 24.804688 L 28.988281 24.804688 C 28.808594 22.414062 27.917969 20.222656 26.53125 18.433594 Z M 23.570312 24.664062 C 23.566406 24.585938 23.5625 24.503906 23.558594 24.421875 C 23.5625 24.503906 23.566406 24.585938 23.570312 24.664062 Z M 23.550781 24.28125 C 23.550781 24.214844 23.546875 24.148438 23.542969 24.082031 C 23.546875 24.148438 23.550781 24.214844 23.550781 24.28125 Z M 10.902344 24.066406 C 10.902344 24.109375 10.898438 24.148438 10.898438 24.191406 C 10.898438 24.148438 10.902344 24.109375 10.902344 24.066406 Z M 10.925781 23.714844 C 10.921875 23.78125 10.917969 23.847656 10.914062 23.914062 C 10.917969 23.847656 10.921875 23.78125 10.925781 23.714844 Z M 23.527344 23.851562 C 23.523438 23.804688 23.519531 23.761719 23.519531 23.714844 C 23.519531 23.761719 23.523438 23.804688 23.527344 23.851562 Z M 23.507812 23.570312 C 23.5 23.496094 23.496094 23.421875 23.488281 23.351562 C 23.496094 23.421875 23.5 23.496094 23.507812 23.570312 Z M 10.953125 23.355469 C 10.949219 23.417969 10.945312 23.484375 10.9375 23.546875 C 10.945312 23.484375 10.949219 23.417969 10.953125 23.355469 Z M 23.476562 23.199219 C 23.46875 23.136719 23.464844 23.074219 23.457031 23.011719 C 23.464844 23.074219 23.46875 23.136719 23.476562 23.199219 Z M 10.988281 22.996094 C 10.980469 23.054688 10.976562 23.113281 10.972656 23.175781 C 10.976562 23.113281 10.980469 23.054688 10.988281 22.996094 Z M 11.023438 22.65625 C 11.015625 22.71875 11.011719 22.78125 11.003906 22.84375 C 11.011719 22.78125 11.015625 22.71875 11.023438 22.65625 Z M 23.441406 22.839844 C 23.433594 22.78125 23.425781 22.71875 23.421875 22.660156 C 23.425781 22.71875 23.433594 22.78125 23.441406 22.839844 Z M 23.402344 22.507812 C 23.394531 22.441406 23.386719 22.375 23.378906 22.304688 C 23.386719 22.375 23.394531 22.441406 23.402344 22.507812 Z M 11.066406 22.296875 C 11.058594 22.367188 11.050781 22.4375 11.042969 22.503906 C 11.050781 22.4375 11.058594 22.367188 11.066406 22.296875 Z M 23.359375 22.167969 C 23.351562 22.101562 23.339844 22.035156 23.332031 21.96875 C 23.339844 22.035156 23.351562 22.101562 23.359375 22.167969 Z M 11.113281 21.960938 C 11.101562 22.027344 11.09375 22.09375 11.085938 22.164062 C 11.09375 22.09375 11.101562 22.027344 11.113281 21.960938 Z M 11.164062 21.613281 C 11.152344 21.679688 11.144531 21.746094 11.132812 21.8125 C 11.144531 21.746094 11.152344 21.679688 11.164062 21.613281 Z M 23.308594 21.800781 C 23.300781 21.746094 23.292969 21.695312 23.285156 21.644531 C 23.292969 21.695312 23.300781 21.746094 23.308594 21.800781 Z M 11.21875 21.289062 C 11.207031 21.351562 11.195312 21.414062 11.183594 21.480469 C 11.195312 21.414062 11.207031 21.351562 11.21875 21.289062 Z M 23.257812 21.476562 C 23.246094 21.414062 23.238281 21.347656 23.226562 21.285156 C 23.238281 21.347656 23.246094 21.414062 23.257812 21.476562 Z M 23.203125 21.144531 C 23.191406 21.089844 23.179688 21.03125 23.171875 20.976562 C 23.179688 21.03125 23.191406 21.089844 23.203125 21.144531 Z M 11.273438 20.976562 C 11.261719 21.027344 11.253906 21.078125 11.246094 21.132812 C 11.253906 21.078125 11.261719 21.027344 11.273438 20.976562 Z M 23.140625 20.816406 C 23.125 20.738281 23.109375 20.65625 23.09375 20.574219 C 23.109375 20.65625 23.125 20.738281 23.140625 20.816406 Z M 11.339844 20.617188 C 11.328125 20.679688 11.316406 20.742188 11.304688 20.800781 C 11.316406 20.742188 11.328125 20.679688 11.339844 20.617188 Z M 23.082031 20.503906 C 23.0625 20.425781 23.046875 20.347656 23.03125 20.269531 C 23.046875 20.347656 23.0625 20.425781 23.082031 20.503906 Z M 11.417969 20.242188 C 11.402344 20.328125 11.382812 20.414062 11.363281 20.5 C 11.382812 20.414062 11.402344 20.328125 11.417969 20.242188 Z M 23.011719 20.1875 C 22.992188 20.089844 22.96875 19.988281 22.945312 19.894531 C 22.96875 19.988281 22.992188 20.089844 23.011719 20.1875 Z M 11.488281 19.945312 C 11.46875 20.023438 11.449219 20.101562 11.433594 20.179688 C 11.449219 20.101562 11.46875 20.023438 11.488281 19.945312 Z M 22.9375 19.867188 C 22.914062 19.761719 22.890625 19.660156 22.863281 19.554688 C 22.890625 19.660156 22.914062 19.761719 22.9375 19.867188 Z M 16.34375 14.113281 C 15.875 14.359375 15.382812 14.800781 14.90625 15.449219 C 14.332031 16.226562 13.800781 17.269531 13.367188 18.539062 C 14.332031 18.753906 15.328125 18.886719 16.34375 18.9375 Z M 18.132812 18.9375 C 19.140625 18.886719 20.125 18.753906 21.078125 18.546875 C 20.648438 17.285156 20.121094 16.246094 19.554688 15.472656 C 19.085938 14.832031 18.597656 14.386719 18.132812 14.132812 Z M 11.121094 18.277344 C 11.164062 18.292969 11.210938 18.308594 11.253906 18.324219 C 11.210938 18.308594 11.164062 18.292969 11.121094 18.277344 Z M 22.507812 18.3125 C 22.492188 18.265625 22.476562 18.21875 22.460938 18.171875 L 22.457031 18.164062 C 22.476562 18.214844 22.492188 18.261719 22.507812 18.3125 Z M 21.101562 14.527344 C 21.78125 15.492188 22.359375 16.699219 22.816406 18.074219 C 23.664062 17.796875 24.488281 17.457031 25.277344 17.0625 C 24.085938 15.945312 22.667969 15.078125 21.101562 14.527344 Z M 13.332031 14.542969 C 11.78125 15.089844 10.378906 15.957031 9.199219 17.0625 C 9.980469 17.453125 10.792969 17.789062 11.632812 18.0625 C 12.085938 16.699219 12.660156 15.5 13.332031 14.542969 Z M 22.097656 17.175781 C 22.089844 17.160156 22.085938 17.148438 22.078125 17.132812 C 22.085938 17.148438 22.089844 17.160156 22.097656 17.175781 Z M 21.902344 16.71875 C 21.886719 16.683594 21.871094 16.652344 21.855469 16.617188 C 21.871094 16.652344 21.886719 16.683594 21.902344 16.71875 Z M 21.828125 16.554688 C 21.820312 16.535156 21.808594 16.511719 21.796875 16.488281 C 21.808594 16.511719 21.820312 16.535156 21.828125 16.554688 Z M 21.742188 16.371094 C 21.738281 16.359375 21.730469 16.347656 21.726562 16.335938 C 21.730469 16.347656 21.738281 16.359375 21.742188 16.371094 Z M 21.671875 16.226562 C 21.664062 16.210938 21.65625 16.191406 21.648438 16.175781 C 21.65625 16.191406 21.664062 16.210938 21.671875 16.226562 Z M 21.605469 16.089844 C 21.59375 16.070312 21.582031 16.046875 21.570312 16.023438 C 21.582031 16.046875 21.59375 16.070312 21.605469 16.089844 Z M 21.523438 15.933594 C 21.515625 15.917969 21.503906 15.898438 21.496094 15.878906 C 21.503906 15.898438 21.515625 15.917969 21.523438 15.933594 Z M 21.457031 15.804688 C 21.441406 15.78125 21.429688 15.753906 21.414062 15.726562 C 21.429688 15.753906 21.441406 15.78125 21.457031 15.804688 Z M 21.378906 15.664062 C 21.363281 15.636719 21.347656 15.605469 21.332031 15.578125 C 21.347656 15.605469 21.363281 15.636719 21.378906 15.664062 Z M 21.296875 15.515625 C 21.28125 15.488281 21.265625 15.464844 21.25 15.4375 C 21.265625 15.464844 21.28125 15.488281 21.296875 15.515625 Z M 21.210938 15.371094 C 21.199219 15.347656 21.183594 15.328125 21.171875 15.304688 C 21.183594 15.328125 21.199219 15.347656 21.210938 15.371094 Z M 21.132812 15.242188 C 21.121094 15.222656 21.109375 15.207031 21.097656 15.1875 C 21.109375 15.207031 21.121094 15.222656 21.132812 15.242188 Z M 21.035156 15.089844 C 21.03125 15.082031 21.023438 15.074219 21.019531 15.0625 C 21.023438 15.074219 21.03125 15.082031 21.035156 15.089844 Z M 20.964844 14.976562 C 20.949219 14.957031 20.9375 14.941406 20.925781 14.921875 C 20.9375 14.941406 20.949219 14.957031 20.964844 14.976562 Z M 20.882812 14.855469 C 20.863281 14.832031 20.847656 14.808594 20.832031 14.785156 C 20.847656 14.808594 20.863281 14.832031 20.882812 14.855469 Z M 20.792969 14.726562 C 20.773438 14.703125 20.757812 14.679688 20.742188 14.65625 C 20.757812 14.679688 20.773438 14.703125 20.792969 14.726562 Z M 20.707031 14.605469 C 20.691406 14.585938 20.675781 14.570312 20.664062 14.550781 C 20.675781 14.570312 20.691406 14.585938 20.707031 14.605469 Z M 20.527344 14.375 C 20.515625 14.359375 20.503906 14.34375 20.492188 14.328125 C 20.503906 14.34375 20.515625 14.359375 20.527344 14.375 Z M 20.171875 13.953125 C 20.230469 14.019531 20.289062 14.085938 20.347656 14.152344 C 20.289062 14.085938 20.230469 14.019531 20.171875 13.953125 Z M 42.863281 7.34375 C 41.183594 7.34375 39.816406 8.714844 39.816406 10.402344 C 39.816406 12.09375 41.183594 13.464844 42.863281 13.464844 C 44.546875 13.464844 45.914062 12.09375 45.914062 10.402344 C 45.914062 8.714844 44.546875 7.34375 42.863281 7.34375 Z M 42.863281 7.34375 "/>
<path style=" stroke:none;fill-rule:nonzero;fill:rgb(0%,52.156866%,100%);fill-opacity:1;" d="M 28.394531 38.425781 C 28.394531 38.039062 28.390625 37.792969 28.375 37.605469 C 28.363281 37.425781 28.339844 37.363281 28.324219 37.339844 C 28.273438 37.234375 28.195312 37.148438 28.097656 37.089844 L 28.054688 37.066406 C 28.023438 37.050781 27.953125 37.023438 27.726562 37.007812 C 27.542969 36.996094 27.3125 36.996094 26.96875 36.996094 L 24.125 36.996094 C 23.785156 36.996094 23.550781 36.996094 23.371094 37.007812 L 23.367188 37.007812 C 23.144531 37.023438 23.074219 37.050781 23.042969 37.066406 C 22.925781 37.125 22.832031 37.21875 22.769531 37.339844 C 22.757812 37.363281 22.734375 37.425781 22.71875 37.605469 C 22.703125 37.792969 22.703125 38.039062 22.703125 38.425781 L 22.703125 39.050781 C 22.703125 39.4375 22.703125 39.683594 22.71875 39.871094 C 22.734375 40.050781 22.757812 40.109375 22.769531 40.136719 C 22.832031 40.253906 22.925781 40.351562 23.042969 40.410156 C 23.070312 40.421875 23.128906 40.449219 23.308594 40.460938 C 23.496094 40.476562 23.742188 40.476562 24.125 40.476562 L 26.96875 40.476562 C 27.355469 40.476562 27.601562 40.476562 27.789062 40.460938 C 27.964844 40.449219 28.027344 40.421875 28.054688 40.410156 C 28.171875 40.351562 28.265625 40.253906 28.324219 40.136719 C 28.339844 40.109375 28.363281 40.050781 28.375 39.871094 C 28.390625 39.683594 28.394531 39.4375 28.394531 39.050781 Z M 24.835938 39.183594 L 24.835938 38.292969 C 24.835938 37.898438 25.15625 37.578125 25.546875 37.578125 C 25.941406 37.578125 26.257812 37.898438 26.257812 38.292969 L 26.257812 39.183594 C 26.257812 39.578125 25.941406 39.898438 25.546875 39.898438 C 25.15625 39.898438 24.835938 39.578125 24.835938 39.183594 Z M 27.058594 35.390625 C 27.058594 34.550781 26.382812 33.875 25.546875 33.875 C 24.714844 33.875 24.035156 34.550781 24.035156 35.390625 L 24.035156 35.570312 C 24.066406 35.570312 24.097656 35.570312 24.125 35.570312 L 26.96875 35.570312 C 27 35.570312 27.03125 35.570312 27.058594 35.570312 Z M 28.480469 35.699219 C 28.554688 35.726562 28.628906 35.757812 28.699219 35.792969 L 28.769531 35.832031 C 29.121094 36.027344 29.410156 36.328125 29.59375 36.691406 C 29.722656 36.949219 29.773438 37.21875 29.792969 37.488281 C 29.816406 37.746094 29.816406 38.0625 29.816406 38.425781 L 29.816406 39.050781 C 29.816406 39.414062 29.816406 39.726562 29.792969 39.988281 C 29.773438 40.253906 29.722656 40.523438 29.59375 40.785156 C 29.394531 41.171875 29.082031 41.484375 28.699219 41.683594 C 28.4375 41.816406 28.171875 41.863281 27.90625 41.886719 C 27.644531 41.90625 27.332031 41.90625 26.96875 41.90625 L 24.125 41.90625 C 23.765625 41.90625 23.449219 41.90625 23.191406 41.886719 C 22.941406 41.863281 22.691406 41.820312 22.445312 41.707031 L 22.398438 41.683594 C 22.011719 41.484375 21.699219 41.171875 21.503906 40.785156 C 21.371094 40.523438 21.324219 40.253906 21.300781 39.988281 C 21.28125 39.726562 21.28125 39.414062 21.28125 39.050781 L 21.28125 38.425781 C 21.28125 38.0625 21.28125 37.746094 21.300781 37.488281 C 21.324219 37.21875 21.371094 36.949219 21.503906 36.691406 C 21.699219 36.304688 22.011719 35.988281 22.398438 35.792969 C 22.46875 35.757812 22.542969 35.726562 22.613281 35.699219 L 22.613281 35.390625 C 22.613281 33.765625 23.929688 32.445312 25.546875 32.445312 C 27.167969 32.445312 28.480469 33.765625 28.480469 35.390625 Z M 28.480469 35.699219 "/>
</g>
</svg>
